<!-- <?xml version="1.0" encoding="utf-8"?> -->
<!-- Generator: Adobe Illustrator 22.1.0, SVG Export Plug-In . SVG Version: 6.00 Build 0)  -->

<svg xmlns="http://www.w3.org/2000/svg" viewBox="0 0 1440 320">
<path fill="#fff" fill-opacity="1" d="M1593.8,57.7l0.2-29.4c-208.3,18.6-307,10-429.1-14.6c-122-24.6-195-10.3-336.6,21.8S491.9,13.2,345.4,13.2
	S111,45.8,7.4,45.8v11.9L1593.8,57.7L1593.8,57.7z">
</path>
</svg>


<svg xmlns="http://www.w3.org/2000/svg"
 viewBox="0 0 1440 320">
 <path fill="#0099ff" fill-opacity="1"
  d="M0,192L60,170.7C120,149,240,107,360,117.3C480,128,600,192,720,208C840,224,960,192,1080,165.3C1200,139,1320,117,1380,106.7L1440,96L1440,320L1380,320C1320,320,1200,320,1080,320C960,320,840,320,720,320C600,320,480,320,360,320C240,320,120,320,60,320L0,320Z">
  </path>
  </svg>